ffmpeg started on 2025-05-12 at 13:56:30
Report written to "D:\Convert\FFMetrics\reports\ssim_report-6.txt"
Log level: 32
Command line:
ffmpeg -hide_banner -nostdin -i "G:\\\xc0\xed\xe8\xec\xe5\\\xce\xed\xe3\xee\xe8\xed\xe3\xe8\\!_35_\xcb\xe5\xf2\xee_2024\\DreamCast\\\xc0\xf2\xf0\xe8 - \xcc\xee\xe8 \xe4\xee\xf0\xee\xe3\xe8\xe5 \xec\xee\xec\xe5\xed\xf2\xfb\\[DC] Atri - My Dear Moments - 12_Telegram_HEVC.mkv" -i "G:\\\xc0\xed\xe8\xec\xe5\\\xce\xed\xe3\xee\xe8\xed\xe3\xe8\\!_35_\xcb\xe5\xf2\xee_2024\\DreamCast\\\xc0\xf2\xf0\xe8 - \xcc\xee\xe8 \xe4\xee\xf0\xee\xe3\xe8\xe5 \xec\xee\xec\xe5\xed\xf2\xfb\\[DC] Atri - My Dear Moments - 12_Telegram.mp4" -lavfi "[0:v]settb=AVTB,setpts=PTS-STARTPTS,format=pix_fmts=yuv420p10,fps=24000/1001,scale=1920:1080:flags=bicubic[main];[1:v]settb=AVTB,setpts=PTS-STARTPTS,format=pix_fmts=yuv420p,fps=24000/1001,scale=1920:1080:flags=bicubic[ref];[main][ref]ssim=eof_action=endall:stats_file='D\\:/Convert/FFMetrics/logs/ssim_logfile-6.txt'" -f null -
Input #0, matroska,webm, from 'G:\Аниме\Онгоинги\!_35_Лето_2024\DreamCast\Атри - Мои дорогие моменты\[DC] Atri - My Dear Moments - 12_Telegram_HEVC.mkv':
  Metadata:
    COMPATIBLE_BRANDS: isomiso2avc1mp41
    MAJOR_BRAND     : isom
    MINOR_VERSION   : 512
    ENCODER         : Lavf61.7.100
  Duration: 00:23:46.60, start: -0.021000, bitrate: 1007 kb/s
  Stream #0:0: Video: hevc (Main 10), yuv420p10le(tv, bt709, progressive), 1920x1080 [SAR 1:1 DAR 16:9], 23.98 fps, 23.98 tbr, 1k tbn (default)
      Metadata:
        HANDLER_NAME    : VideoHandler
        VENDOR_ID       : [0][0][0][0]
        ENCODER         : Lavc61.19.100 libx265
        BPS             : 809286
        DURATION        : 00:23:46.508708333
        NUMBER_OF_FRAMES: 34202
        NUMBER_OF_BYTES : 144306707
        _STATISTICS_WRITING_APP: mkvpropedit v66.0.0 ('Josie') 64-bit
        _STATISTICS_WRITING_DATE_UTC: 2025-05-06 15:38:20
        _STATISTICS_TAGS: BPS DURATION NUMBER_OF_FRAMES NUMBER_OF_BYTES
  Stream #0:1: Audio: aac (LC), 48000 Hz, stereo, fltp (default)
      Metadata:
        HANDLER_NAME    : SoundHandler
        VENDOR_ID       : [0][0][0][0]
        ENCODER         : Lavc61.19.100 aac
        BPS             : 194021
        DURATION        : 00:23:46.602000000
        NUMBER_OF_FRAMES: 66873
        NUMBER_OF_BYTES : 34598975
        _STATISTICS_WRITING_APP: mkvpropedit v66.0.0 ('Josie') 64-bit
        _STATISTICS_WRITING_DATE_UTC: 2025-05-06 15:38:20
        _STATISTICS_TAGS: BPS DURATION NUMBER_OF_FRAMES NUMBER_OF_BYTES
Input #1, mov,mp4,m4a,3gp,3g2,mj2, from 'G:\Аниме\Онгоинги\!_35_Лето_2024\DreamCast\Атри - Мои дорогие моменты\[DC] Atri - My Dear Moments - 12_Telegram.mp4':
  Metadata:
    major_brand     : isom
    minor_version   : 512
    compatible_brands: isomiso2avc1mp41
    encoder         : Lavf61.1.100
  Duration: 00:23:46.57, start: 0.000000, bitrate: 3510 kb/s
  Stream #1:0[0x1](und): Video: h264 (High) (avc1 / 0x31637661), yuv420p(tv, bt709, progressive), 1920x1080 [SAR 1:1 DAR 16:9], 3362 kb/s, 23.98 fps, 23.98 tbr, 24k tbn (default)
      Metadata:
        handler_name    : VideoHandler
        vendor_id       : [0][0][0][0]
        encoder         : Lavc61.3.100 h264_qsv
  Stream #1:1[0x2](und): Audio: aac (HE-AACv2) (mp4a / 0x6134706D), 48000 Hz, stereo, fltp, 144 kb/s (default)
      Metadata:
        handler_name    : SoundHandler
        vendor_id       : [0][0][0][0]
Stream mapping:
  Stream #0:0 (hevc) -> settb:default
  Stream #1:0 (h264) -> settb:default
  ssim:default -> Stream #0:0 (wrapped_avframe)
  Stream #0:1 -> #0:1 (aac (native) -> pcm_s16le (native))
Output #0, null, to 'pipe:':
  Metadata:
    COMPATIBLE_BRANDS: isomiso2avc1mp41
    MAJOR_BRAND     : isom
    MINOR_VERSION   : 512
    encoder         : Lavf61.7.100
  Stream #0:0: Video: wrapped_avframe, yuv420p10le(tv, bt709, progressive), 1920x1080 [SAR 1:1 DAR 16:9], q=2-31, 200 kb/s, 23.98 fps, 23.98 tbn
      Metadata:
        encoder         : Lavc61.19.100 wrapped_avframe
  Stream #0:1: Audio: pcm_s16le, 48000 Hz, stereo, s16, 1536 kb/s (default)
      Metadata:
        HANDLER_NAME    : SoundHandler
        VENDOR_ID       : [0][0][0][0]
        _STATISTICS_TAGS: BPS DURATION NUMBER_OF_FRAMES NUMBER_OF_BYTES
        BPS             : 194021
        DURATION        : 00:23:46.602000000
        NUMBER_OF_FRAMES: 66873
        NUMBER_OF_BYTES : 34598975
        _STATISTICS_WRITING_APP: mkvpropedit v66.0.0 ('Josie') 64-bit
        _STATISTICS_WRITING_DATE_UTC: 2025-05-06 15:38:20
        encoder         : Lavc61.19.100 pcm_s16le
frame=  171 fps=0.0 q=-0.0 size=N/A time=00:00:07.13 bitrate=N/A speed=13.8x    frame=  388 fps=378 q=-0.0 size=N/A time=00:00:16.18 bitrate=N/A speed=15.8x    frame=  636 fps=410 q=-0.0 size=N/A time=00:00:26.52 bitrate=N/A speed=17.1x    frame=  908 fps=441 q=-0.0 size=N/A time=00:00:37.87 bitrate=N/A speed=18.4x    frame= 1163 fps=451 q=-0.0 size=N/A time=00:00:48.50 bitrate=N/A speed=18.8x    frame= 1407 fps=456 q=-0.0 size=N/A time=00:00:58.68 bitrate=N/A speed=  19x    frame= 1642 fps=455 q=-0.0 size=N/A time=00:01:08.48 bitrate=N/A speed=  19x    frame= 1917 fps=465 q=-0.0 size=N/A time=00:01:19.95 bitrate=N/A speed=19.4x    frame= 2187 fps=471 q=-0.0 size=N/A time=00:01:31.21 bitrate=N/A speed=19.7x    frame= 2393 fps=463 q=-0.0 size=N/A time=00:01:39.80 bitrate=N/A speed=19.3x    frame= 2658 fps=469 q=-0.0 size=N/A time=00:01:50.86 bitrate=N/A speed=19.5x    frame= 2933 fps=473 q=-0.0 size=N/A time=00:02:02.33 bitrate=N/A speed=19.7x    frame= 3143 fps=469 q=-0.0 size=N/A time=00:02:11.08 bitrate=N/A speed=19.6x    frame= 3380 fps=468 q=-0.0 size=N/A time=00:02:20.97 bitrate=N/A speed=19.5x    frame= 3608 fps=467 q=-0.0 size=N/A time=00:02:30.48 bitrate=N/A speed=19.5x    frame= 3834 fps=464 q=-0.0 size=N/A time=00:02:39.90 bitrate=N/A speed=19.4x    frame= 4049 fps=462 q=-0.0 size=N/A time=00:02:48.87 bitrate=N/A speed=19.3x    frame= 4251 fps=458 q=-0.0 size=N/A time=00:02:57.30 bitrate=N/A speed=19.1x    frame= 4472 fps=457 q=-0.0 size=N/A time=00:03:06.51 bitrate=N/A speed=  19x    frame= 4699 fps=455 q=-0.0 size=N/A time=00:03:15.98 bitrate=N/A speed=  19x    frame= 4919 fps=454 q=-0.0 size=N/A time=00:03:25.16 bitrate=N/A speed=  19x    frame= 5160 fps=455 q=-0.0 size=N/A time=00:03:35.21 bitrate=N/A speed=  19x    frame= 5367 fps=453 q=-0.0 size=N/A time=00:03:43.84 bitrate=N/A speed=18.9x    frame= 5553 fps=448 q=-0.0 size=N/A time=00:03:51.60 bitrate=N/A speed=18.7x    frame= 5788 fps=449 q=-0.0 size=N/A time=00:04:01.40 bitrate=N/A speed=18.7x    frame= 6074 fps=453 q=-0.0 size=N/A time=00:04:13.33 bitrate=N/A speed=18.9x    frame= 6342 fps=455 q=-0.0 size=N/A time=00:04:24.51 bitrate=N/A speed=  19x    frame= 6608 fps=457 q=-0.0 size=N/A time=00:04:35.60 bitrate=N/A speed=19.1x    frame= 6873 fps=460 q=-0.0 size=N/A time=00:04:46.66 bitrate=N/A speed=19.2x    frame= 7142 fps=462 q=-0.0 size=N/A time=00:04:57.88 bitrate=N/A speed=19.3x    frame= 7368 fps=461 q=-0.0 size=N/A time=00:05:07.30 bitrate=N/A speed=19.2x    frame= 7614 fps=461 q=-0.0 size=N/A time=00:05:17.56 bitrate=N/A speed=19.2x    frame= 7853 fps=461 q=-0.0 size=N/A time=00:05:27.53 bitrate=N/A speed=19.2x    frame= 8084 fps=461 q=-0.0 size=N/A time=00:05:37.17 bitrate=N/A speed=19.2x    frame= 8328 fps=461 q=-0.0 size=N/A time=00:05:47.34 bitrate=N/A speed=19.2x    frame= 8589 fps=463 q=-0.0 size=N/A time=00:05:58.23 bitrate=N/A speed=19.3x    frame= 8854 fps=464 q=-0.0 size=N/A time=00:06:09.28 bitrate=N/A speed=19.4x    frame= 9100 fps=464 q=-0.0 size=N/A time=00:06:19.54 bitrate=N/A speed=19.4x    frame= 9372 fps=466 q=-0.0 size=N/A time=00:06:30.89 bitrate=N/A speed=19.4x    frame= 9593 fps=465 q=-0.0 size=N/A time=00:06:40.10 bitrate=N/A speed=19.4x    frame= 9811 fps=464 q=-0.0 size=N/A time=00:06:49.20 bitrate=N/A speed=19.4x    frame= 9998 fps=462 q=-0.0 size=N/A time=00:06:56.99 bitrate=N/A speed=19.3x    frame=10254 fps=462 q=-0.0 size=N/A time=00:07:07.67 bitrate=N/A speed=19.3x    frame=10466 fps=461 q=-0.0 size=N/A time=00:07:16.51 bitrate=N/A speed=19.2x    frame=10697 fps=461 q=-0.0 size=N/A time=00:07:26.15 bitrate=N/A speed=19.2x    frame=10936 fps=461 q=-0.0 size=N/A time=00:07:36.12 bitrate=N/A speed=19.2x    frame=11190 fps=462 q=-0.0 size=N/A time=00:07:46.71 bitrate=N/A speed=19.3x    frame=11435 fps=462 q=-0.0 size=N/A time=00:07:56.93 bitrate=N/A speed=19.3x    frame=11696 fps=463 q=-0.0 size=N/A time=00:08:07.82 bitrate=N/A speed=19.3x    frame=11957 fps=464 q=-0.0 size=N/A time=00:08:18.70 bitrate=N/A speed=19.3x    frame=12218 fps=465 q=-0.0 size=N/A time=00:08:29.59 bitrate=N/A speed=19.4x    frame=12451 fps=464 q=-0.0 size=N/A time=00:08:39.31 bitrate=N/A speed=19.4x    frame=12690 fps=464 q=-0.0 size=N/A time=00:08:49.27 bitrate=N/A speed=19.4x    frame=12937 fps=465 q=-0.0 size=N/A time=00:08:59.58 bitrate=N/A speed=19.4x    frame=13208 fps=466 q=-0.0 size=N/A time=00:09:10.88 bitrate=N/A speed=19.4x    frame=13462 fps=466 q=-0.0 size=N/A time=00:09:21.47 bitrate=N/A speed=19.4x    frame=13735 fps=467 q=-0.0 size=N/A time=00:09:32.86 bitrate=N/A speed=19.5x    frame=14009 fps=468 q=-0.0 size=N/A time=00:09:44.29 bitrate=N/A speed=19.5x    frame=14273 fps=469 q=-0.0 size=N/A time=00:09:55.34 bitrate=N/A speed=19.6x    frame=14546 fps=470 q=-0.0 size=N/A time=00:10:06.68 bitrate=N/A speed=19.6x    frame=14808 fps=471 q=-0.0 size=N/A time=00:10:17.61 bitrate=N/A speed=19.6x    frame=15045 fps=471 q=-0.0 size=N/A time=00:10:27.50 bitrate=N/A speed=19.6x    frame=15317 fps=472 q=-0.0 size=N/A time=00:10:38.84 bitrate=N/A speed=19.7x    frame=15545 fps=471 q=-0.0 size=N/A time=00:10:48.35 bitrate=N/A speed=19.6x    frame=15779 fps=471 q=-0.0 size=N/A time=00:10:58.11 bitrate=N/A speed=19.6x    frame=16008 fps=470 q=-0.0 size=N/A time=00:11:07.66 bitrate=N/A speed=19.6x    frame=16264 fps=471 q=-0.0 size=N/A time=00:11:18.34 bitrate=N/A speed=19.6x    frame=16528 fps=471 q=-0.0 size=N/A time=00:11:29.35 bitrate=N/A speed=19.7x    frame=16754 fps=471 q=-0.0 size=N/A time=00:11:38.78 bitrate=N/A speed=19.6x    frame=16987 fps=471 q=-0.0 size=N/A time=00:11:48.49 bitrate=N/A speed=19.6x    frame=17244 fps=471 q=-0.0 size=N/A time=00:11:59.21 bitrate=N/A speed=19.6x    frame=17515 fps=472 q=-0.0 size=N/A time=00:12:10.52 bitrate=N/A speed=19.7x    frame=17766 fps=472 q=-0.0 size=N/A time=00:12:20.99 bitrate=N/A speed=19.7x    frame=18030 fps=473 q=-0.0 size=N/A time=00:12:32.00 bitrate=N/A speed=19.7x    frame=18304 fps=473 q=-0.0 size=N/A time=00:12:43.42 bitrate=N/A speed=19.7x    frame=18557 fps=474 q=-0.0 size=N/A time=00:12:53.98 bitrate=N/A speed=19.8x    frame=18827 fps=474 q=-0.0 size=N/A time=00:13:05.24 bitrate=N/A speed=19.8x    frame=19052 fps=474 q=-0.0 size=N/A time=00:13:14.62 bitrate=N/A speed=19.8x    frame=19308 fps=474 q=-0.0 size=N/A time=00:13:25.30 bitrate=N/A speed=19.8x    frame=19571 fps=474 q=-0.0 size=N/A time=00:13:36.27 bitrate=N/A speed=19.8x    frame=19795 fps=474 q=-0.0 size=N/A time=00:13:45.61 bitrate=N/A speed=19.8x    frame=20017 fps=473 q=-0.0 size=N/A time=00:13:54.87 bitrate=N/A speed=19.7x    frame=20269 fps=474 q=-0.0 size=N/A time=00:14:05.38 bitrate=N/A speed=19.8x    frame=20530 fps=474 q=-0.0 size=N/A time=00:14:16.27 bitrate=N/A speed=19.8x    frame=20759 fps=474 q=-0.0 size=N/A time=00:14:25.82 bitrate=N/A speed=19.8x    frame=20994 fps=473 q=-0.0 size=N/A time=00:14:35.62 bitrate=N/A speed=19.7x    frame=21248 fps=474 q=-0.0 size=N/A time=00:14:46.21 bitrate=N/A speed=19.8x    frame=21524 fps=474 q=-0.0 size=N/A time=00:14:57.73 bitrate=N/A speed=19.8x    frame=21774 fps=474 q=-0.0 size=N/A time=00:15:08.15 bitrate=N/A speed=19.8x    frame=22045 fps=475 q=-0.0 size=N/A time=00:15:19.46 bitrate=N/A speed=19.8x    frame=22315 fps=476 q=-0.0 size=N/A time=00:15:30.72 bitrate=N/A speed=19.8x    frame=22586 fps=476 q=-0.0 size=N/A time=00:15:42.02 bitrate=N/A speed=19.9x    frame=22832 fps=476 q=-0.0 size=N/A time=00:15:52.28 bitrate=N/A speed=19.9x    frame=23115 fps=477 q=-0.0 size=N/A time=00:16:04.08 bitrate=N/A speed=19.9x    frame=23381 fps=477 q=-0.0 size=N/A time=00:16:15.18 bitrate=N/A speed=19.9x    frame=23664 fps=478 q=-0.0 size=N/A time=00:16:26.98 bitrate=N/A speed=19.9x    frame=23932 fps=478 q=-0.0 size=N/A time=00:16:38.16 bitrate=N/A speed=  20x    frame=24204 fps=479 q=-0.0 size=N/A time=00:16:49.50 bitrate=N/A speed=  20x    frame=24453 fps=479 q=-0.0 size=N/A time=00:16:59.89 bitrate=N/A speed=  20x    frame=24718 fps=479 q=-0.0 size=N/A time=00:17:10.94 bitrate=N/A speed=  20x    frame=24970 fps=479 q=-0.0 size=N/A time=00:17:21.45 bitrate=N/A speed=  20x    frame=25222 fps=479 q=-0.0 size=N/A time=00:17:31.96 bitrate=N/A speed=  20x    frame=25460 fps=479 q=-0.0 size=N/A time=00:17:41.89 bitrate=N/A speed=  20x    frame=25699 fps=479 q=-0.0 size=N/A time=00:17:51.86 bitrate=N/A speed=  20x    frame=25944 fps=479 q=-0.0 size=N/A time=00:18:02.08 bitrate=N/A speed=  20x    frame=26190 fps=479 q=-0.0 size=N/A time=00:18:12.34 bitrate=N/A speed=  20x    frame=26428 fps=479 q=-0.0 size=N/A time=00:18:22.26 bitrate=N/A speed=  20x    frame=26647 fps=478 q=-0.0 size=N/A time=00:18:31.40 bitrate=N/A speed=  20x    frame=26921 fps=479 q=-0.0 size=N/A time=00:18:42.83 bitrate=N/A speed=  20x    frame=27180 fps=479 q=-0.0 size=N/A time=00:18:53.63 bitrate=N/A speed=  20x    frame=27425 fps=479 q=-0.0 size=N/A time=00:19:03.85 bitrate=N/A speed=  20x    frame=27687 fps=479 q=-0.0 size=N/A time=00:19:14.77 bitrate=N/A speed=  20x    frame=27940 fps=479 q=-0.0 size=N/A time=00:19:25.33 bitrate=N/A speed=  20x    frame=28167 fps=479 q=-0.0 size=N/A time=00:19:34.79 bitrate=N/A speed=  20x    frame=28438 fps=479 q=-0.0 size=N/A time=00:19:46.10 bitrate=N/A speed=  20x    frame=28691 fps=480 q=-0.0 size=N/A time=00:19:56.65 bitrate=N/A speed=  20x    frame=28975 fps=480 q=-0.0 size=N/A time=00:20:08.49 bitrate=N/A speed=  20x    frame=29242 fps=481 q=-0.0 size=N/A time=00:20:19.63 bitrate=N/A speed=  20x    frame=29488 fps=480 q=-0.0 size=N/A time=00:20:29.89 bitrate=N/A speed=  20x    frame=29755 fps=481 q=-0.0 size=N/A time=00:20:41.03 bitrate=N/A speed=  20x    frame=29981 fps=480 q=-0.0 size=N/A time=00:20:50.45 bitrate=N/A speed=  20x    frame=30259 fps=481 q=-0.0 size=N/A time=00:21:02.05 bitrate=N/A speed=20.1x    frame=30518 fps=481 q=-0.0 size=N/A time=00:21:12.85 bitrate=N/A speed=20.1x    frame=30781 fps=481 q=-0.0 size=N/A time=00:21:23.86 bitrate=N/A speed=20.1x    frame=31013 fps=481 q=-0.0 size=N/A time=00:21:33.50 bitrate=N/A speed=20.1x    frame=31279 fps=481 q=-0.0 size=N/A time=00:21:44.59 bitrate=N/A speed=20.1x    frame=31555 fps=482 q=-0.0 size=N/A time=00:21:56.10 bitrate=N/A speed=20.1x    frame=31824 fps=482 q=-0.0 size=N/A time=00:22:07.32 bitrate=N/A speed=20.1x    frame=32089 fps=482 q=-0.0 size=N/A time=00:22:18.37 bitrate=N/A speed=20.1x    frame=32316 fps=482 q=-0.0 size=N/A time=00:22:27.84 bitrate=N/A speed=20.1x    frame=32510 fps=481 q=-0.0 size=N/A time=00:22:35.93 bitrate=N/A speed=20.1x    frame=32682 fps=480 q=-0.0 size=N/A time=00:22:43.11 bitrate=N/A speed=  20x    frame=32898 fps=480 q=-0.0 size=N/A time=00:22:52.12 bitrate=N/A speed=  20x    frame=33084 fps=479 q=-0.0 size=N/A time=00:22:59.87 bitrate=N/A speed=  20x    frame=33265 fps=478 q=-0.0 size=N/A time=00:23:07.42 bitrate=N/A speed=19.9x    frame=33447 fps=477 q=-0.0 size=N/A time=00:23:15.01 bitrate=N/A speed=19.9x    frame=33636 fps=476 q=-0.0 size=N/A time=00:23:22.90 bitrate=N/A speed=19.9x    frame=33832 fps=475 q=-0.0 size=N/A time=00:23:31.07 bitrate=N/A speed=19.8x    frame=34056 fps=475 q=-0.0 size=N/A time=00:23:40.41 bitrate=N/A speed=19.8x    [Parsed_ssim_10 @ 00000252cfcab840] SSIM Y:0.993537 (21.895383) U:0.992427 (21.207051) V:0.992343 (21.159382) All:0.993153 (21.644768)
[out#0/null @ 00000252ced045c0] video:14696KiB audio:267492KiB subtitle:0KiB other streams:0KiB global headers:0KiB muxing overhead: unknown
frame=34202 fps=475 q=-0.0 Lsize=N/A time=00:23:46.50 bitrate=N/A speed=19.8x    
